<svg width="18" height="18" viewBox="0 0 18 18" fill="none" xmlns="http://www.w3.org/2000/svg">
<path fill-rule="evenodd" clip-rule="evenodd" d="M1.75464 9C1.75464 4.99594 5.00057 1.75 9.00464 1.75C13.0087 1.75 16.2546 4.99594 16.2546 9C16.2546 9.03368 16.2569 9.06683 16.2612 9.09934C16.2579 9.13068 16.2567 9.16256 16.2574 9.19489C16.2636 9.44945 16.231 9.84444 16.1474 10.2219C16.0563 10.6331 15.9376 10.8694 15.8682 10.9423C15.5663 11.2591 15.1509 11.4429 14.7135 11.4535C14.276 11.464 13.8522 11.3003 13.5354 10.9984C13.3283 10.801 13.2689 10.5113 13.2527 9.83814L13.1372 5.04002C13.1273 4.62592 12.7835 4.29831 12.3694 4.30828C11.9553 4.31825 11.6277 4.66201 11.6377 5.07611L11.6543 5.76875C10.9332 5.17672 10.0104 4.82135 9.00462 4.82135C6.69686 4.82135 4.82605 6.69216 4.82605 8.99992C4.82605 11.3077 6.69686 13.1785 9.00462 13.1785C10.279 13.1785 11.4202 12.608 12.1866 11.7084C12.2726 11.8392 12.376 11.9655 12.5006 12.0843C13.1054 12.6606 13.9144 12.9731 14.7495 12.953C15.5847 12.9329 16.3777 12.5819 16.9541 11.9771C17.3238 11.5892 17.5109 11.0022 17.6119 10.5463C17.7203 10.0566 17.7662 9.54057 17.757 9.1588C17.7563 9.13129 17.7542 9.10418 17.7507 9.07751C17.7533 9.05203 17.7546 9.02617 17.7546 9C17.7546 4.16751 13.8371 0.25 9.00464 0.25C4.17215 0.25 0.254639 4.16751 0.254639 9C0.254639 13.8325 4.17215 17.75 9.00464 17.75C11.0477 17.75 12.929 17.0489 14.4183 15.8747C14.7435 15.6182 14.7993 15.1466 14.5428 14.8213C14.2864 14.4961 13.8148 14.4403 13.4895 14.6968C12.2554 15.6698 10.6988 16.25 9.00464 16.25C5.00057 16.25 1.75464 13.0041 1.75464 9ZM9.00462 6.32135C7.52529 6.32135 6.32605 7.52059 6.32605 8.99992C6.32605 10.4793 7.52529 11.6785 9.00462 11.6785C10.484 11.6785 11.6832 10.4793 11.6832 8.99992C11.6832 7.52059 10.484 6.32135 9.00462 6.32135Z" fill="#067CC8"/>
</svg>
