<svg width="118" height="44" viewBox="0 0 118 44" fill="none" xmlns="http://www.w3.org/2000/svg">
<path d="M1.49048 42.7319C1.49048 41.5332 3.16346 41.0992 3.16346 40.4998C3.16346 40.3138 3.01887 40.1072 2.66775 40.1072C2.31663 40.1072 2.13076 40.3552 2.00683 40.5205L1.38721 40.0865C1.59375 39.7352 2.02747 39.3632 2.77102 39.3632C3.6385 39.3632 4.05158 39.9005 4.05158 40.4378C4.05158 41.5125 2.50252 41.9259 2.50252 42.4839H4.07224V43.2485H1.51113V42.7319H1.49048Z" fill="#3A4349"/>
<path d="M5.80713 41.3265C5.80713 40.1485 6.30283 39.3632 7.29422 39.3632C8.30627 39.3632 8.78132 40.1692 8.78132 41.3265C8.78132 42.5045 8.30627 43.3312 7.29422 43.3312C6.30283 43.3312 5.80713 42.5045 5.80713 41.3265ZM7.8932 41.3265C7.8932 40.6652 7.70731 40.1485 7.27357 40.1485C6.83984 40.1485 6.65395 40.6652 6.65395 41.3265C6.65395 42.0085 6.81919 42.5458 7.27357 42.5458C7.72796 42.5458 7.8932 42.0085 7.8932 41.3265Z" fill="#3A4349"/>
<path d="M10.4131 42.7319C10.4131 41.5332 12.0861 41.0992 12.0861 40.4998C12.0861 40.3138 11.9415 40.1072 11.5904 40.1072C11.2393 40.1072 11.0534 40.3552 10.9295 40.5205L10.3098 40.0865C10.5164 39.7352 10.9501 39.3632 11.6937 39.3632C12.5612 39.3632 12.9743 39.9005 12.9743 40.4378C12.9743 41.5125 11.4252 41.9259 11.4252 42.4839H12.9949V43.2485H10.4338V42.7319H10.4131Z" fill="#3A4349"/>
<path d="M14.8743 42.7319C14.8743 41.5332 16.5473 41.0992 16.5473 40.4998C16.5473 40.3138 16.4027 40.1072 16.0516 40.1072C15.7004 40.1072 15.5146 40.3552 15.3906 40.5205L14.771 40.0865C14.9775 39.7352 15.4113 39.3632 16.1548 39.3632C17.0223 39.3632 17.4354 39.9005 17.4354 40.4378C17.4354 41.5125 15.8863 41.9259 15.8863 42.4839H17.4561V43.2485H14.8949V42.7319H14.8743Z" fill="#3A4349"/>
<path d="M3.18406 7.57714V3.50577L2.3992 4.27044C2.17201 4.47711 1.92416 4.58045 1.65566 4.58045C1.3665 4.58045 1.11865 4.47711 0.912106 4.27044C0.705565 4.06377 0.602295 3.81577 0.602295 3.52644C0.602295 3.2371 0.705565 2.9891 0.912106 2.76176L3.20472 0.48841C3.49388 0.199074 3.84499 0.0750732 4.25807 0.0750732C4.67115 0.0750732 5.02228 0.219741 5.31144 0.509077C5.6006 0.798413 5.74517 1.14975 5.74517 1.56309V7.57714C5.74517 7.92848 5.62125 8.23848 5.3734 8.48648C5.12555 8.73448 4.81573 8.87915 4.46461 8.87915C4.11349 8.87915 3.80369 8.75515 3.55584 8.48648C3.30799 8.21781 3.18406 7.92848 3.18406 7.57714Z" fill="#3A4349"/>
<path d="M7.14966 7.37088V1.58417C7.14966 1.15016 7.27358 0.798825 7.50078 0.57149C7.72797 0.344154 8.0791 0.220154 8.51283 0.220154H12.6643C12.9534 0.220154 13.2219 0.323488 13.4285 0.530157C13.635 0.736825 13.7383 0.984827 13.7383 1.29483C13.7383 1.58417 13.635 1.83217 13.4285 2.0595C13.2219 2.26617 12.9741 2.36951 12.6643 2.36951H9.73141V3.36151H12.5817C12.8708 3.36151 13.1393 3.46485 13.3459 3.67152C13.5524 3.87819 13.6557 4.12619 13.6557 4.43619C13.6557 4.72553 13.5524 4.97353 13.3459 5.1802C13.1393 5.38687 12.8915 5.4902 12.5817 5.4902H9.73141V6.58555H12.6643C12.9534 6.58555 13.2219 6.68888 13.4285 6.89555C13.635 7.10222 13.7383 7.35022 13.7383 7.66022C13.7383 7.94956 13.635 8.19756 13.4285 8.40423C13.2219 8.6109 12.9741 8.71423 12.6643 8.71423H8.51283C8.0791 8.71423 7.72797 8.59023 7.50078 8.36289C7.27358 8.15622 7.14966 7.80489 7.14966 7.37088Z" fill="#3A4349"/>
<path d="M21.0705 5.59352L21.9999 6.77153C22.1858 6.9782 22.289 7.24687 22.289 7.57754C22.289 7.94954 22.1651 8.25955 21.8966 8.50755C21.6281 8.75555 21.339 8.87955 20.9878 8.87955C20.5541 8.87955 20.203 8.71421 19.9551 8.36288L18.3028 6.02753H17.3321V7.59821C17.3321 7.94954 17.2082 8.25955 16.9603 8.50755C16.7125 8.75555 16.4027 8.90022 16.0515 8.90022C15.7004 8.90022 15.3906 8.77622 15.1428 8.50755C14.8949 8.25955 14.771 7.94954 14.771 7.59821V1.60482C14.771 1.17082 14.8949 0.819486 15.1221 0.592151C15.3493 0.364816 15.7004 0.240814 16.1342 0.240814H19.3149C20.265 0.240814 21.0085 0.509483 21.5661 1.06749C22.1238 1.62549 22.3923 2.32816 22.3923 3.15484C22.3716 4.22951 21.9379 5.05619 21.0705 5.59352ZM17.3527 2.34883V3.83684H18.9224C19.1703 3.83684 19.3562 3.77484 19.5214 3.63017C19.6866 3.48551 19.7693 3.29951 19.7693 3.09284C19.7693 2.8655 19.6866 2.70017 19.5214 2.5555C19.3562 2.41083 19.1496 2.34883 18.9224 2.34883H17.3527Z" fill="#3A4349"/>
<path d="M26.6885 7.57755V1.58417C26.6885 1.15016 26.8124 0.798825 27.0396 0.57149C27.2668 0.344154 27.6179 0.220154 28.0516 0.220154H32.2031C32.4923 0.220154 32.7608 0.323488 32.9673 0.530157C33.1738 0.736825 33.2771 0.984827 33.2771 1.29483C33.2771 1.58417 33.1738 1.83217 32.9673 2.0595C32.7608 2.26617 32.5129 2.36951 32.2031 2.36951H29.2702V3.36151H32.1205C32.4096 3.36151 32.6782 3.46485 32.8847 3.67152C33.0912 3.87819 33.1945 4.12619 33.1945 4.43619C33.1945 4.72553 33.0912 4.97353 32.8847 5.1802C32.6782 5.38687 32.4303 5.4902 32.1205 5.4902H29.2702V7.55689C29.2702 7.90822 29.1463 8.21822 28.8985 8.46623C28.6506 8.71423 28.3408 8.8589 27.9897 8.8589C27.6386 8.8589 27.3287 8.73489 27.0809 8.46623C26.8124 8.21822 26.6885 7.92889 26.6885 7.57755Z" fill="#3A4349"/>
<path d="M38.4613 0.0754757C39.7831 0.0548088 40.8778 0.468146 41.7866 1.31549C42.6954 2.16283 43.1497 3.21684 43.1084 4.47751C43.1291 5.73819 42.6954 6.81287 41.7866 7.66021C40.8778 8.50755 39.7625 8.92089 38.4613 8.90022C37.1394 8.92089 36.0447 8.50755 35.136 7.66021C34.2272 6.81287 33.7728 5.75886 33.8141 4.47751C33.7935 3.21684 34.2272 2.16283 35.136 1.31549C36.0241 0.468146 37.1394 0.0548088 38.4613 0.0754757ZM39.9277 2.96883C39.5353 2.5555 39.0602 2.34883 38.4613 2.34883C37.8623 2.34883 37.3666 2.5555 36.9948 2.96883C36.6024 3.38217 36.4165 3.87817 36.4165 4.49818C36.4165 5.09752 36.6024 5.61419 36.9948 6.02753C37.3873 6.44086 37.8623 6.64753 38.4613 6.64753C39.0602 6.64753 39.5559 6.44086 39.9277 6.02753C40.3201 5.61419 40.506 5.11819 40.506 4.49818C40.506 3.87817 40.2995 3.3615 39.9277 2.96883Z" fill="#3A4349"/>
<path d="M50.3581 5.59352L51.2875 6.77153C51.4734 6.9782 51.5767 7.24687 51.5767 7.57754C51.5767 7.94954 51.4527 8.25955 51.1842 8.50755C50.9157 8.75555 50.6266 8.87955 50.2755 8.87955C49.8417 8.87955 49.4906 8.71421 49.2428 8.36288L47.5904 6.02753H46.6197V7.59821C46.6197 7.94954 46.4958 8.25955 46.2479 8.50755C46.0001 8.75555 45.6903 8.90022 45.3391 8.90022C44.988 8.90022 44.6782 8.77622 44.4304 8.50755C44.1825 8.25955 44.0586 7.94954 44.0586 7.59821V1.60482C44.0586 1.17082 44.1825 0.819486 44.4097 0.592151C44.6369 0.364816 44.988 0.240814 45.4218 0.240814H48.6025C49.5526 0.240814 50.2961 0.509483 50.8538 1.06749C51.4114 1.62549 51.6799 2.32816 51.6799 3.15484C51.6593 4.22951 51.2256 5.05619 50.3581 5.59352ZM46.6197 2.34883V3.83684H48.1894C48.4373 3.83684 48.6231 3.77484 48.7884 3.63017C48.9536 3.48551 49.0362 3.29951 49.0362 3.09284C49.0362 2.8655 48.9536 2.70017 48.7884 2.5555C48.6231 2.41083 48.4166 2.34883 48.1894 2.34883H46.6197Z" fill="#3A4349"/>
<path d="M52.6917 5.24219V1.37749C52.6917 1.02615 52.8156 0.716149 53.0841 0.44748C53.3526 0.178811 53.6417 0.0548096 54.0135 0.0548096C54.3646 0.0548096 54.6744 0.178811 54.9429 0.44748C55.2114 0.716149 55.3354 1.00548 55.3354 1.37749V5.13885C55.3354 5.59352 55.4593 5.96553 55.7071 6.21353C55.955 6.4822 56.3267 6.6062 56.8224 6.6062C57.2975 6.6062 57.6693 6.4822 57.9171 6.21353C58.1649 5.94486 58.2889 5.59352 58.2889 5.13885V1.37749C58.2889 1.02615 58.4128 0.716149 58.6813 0.44748C58.9498 0.178811 59.239 0.0548096 59.6107 0.0548096C59.9825 0.0548096 60.2923 0.178811 60.5402 0.44748C60.788 0.716149 60.9326 1.00548 60.9326 1.37749V5.22152C60.9326 6.33753 60.6021 7.22621 59.9205 7.88755C59.239 8.54888 58.2063 8.87955 56.8431 8.87955C55.5006 8.87955 54.4679 8.54888 53.7863 7.90821C53.0428 7.2882 52.6917 6.37886 52.6917 5.24219Z" fill="#3A4349"/>
<path d="M69.8137 7.57757V3.36152L68.0375 8.38357C67.9962 8.52824 67.8929 8.65224 67.769 8.73491C67.645 8.83824 67.5005 8.87958 67.3352 8.87958C67.17 8.87958 67.0461 8.83824 66.9015 8.73491C66.7776 8.63157 66.6743 8.52824 66.633 8.38357L64.8568 3.36152V7.57757C64.8568 7.9289 64.7328 8.2389 64.485 8.48691C64.2371 8.73491 63.9273 8.87958 63.5762 8.87958C63.2251 8.87958 62.9153 8.75558 62.6674 8.48691C62.4196 8.2389 62.2957 7.9289 62.2957 7.57757V2.14218C62.2957 1.58418 62.5022 1.08817 62.8946 0.6955C63.3077 0.282163 63.7827 0.0961609 64.3404 0.0961609C64.7741 0.0961609 65.1666 0.220162 65.5383 0.488832C65.9101 0.757501 66.1373 1.0675 66.3025 1.48084L67.3559 4.58087L68.4093 1.48084C68.5538 1.0675 68.8017 0.736834 69.1734 0.488832C69.5452 0.240829 69.9376 0.0961609 70.3714 0.0961609C70.929 0.0961609 71.4247 0.30283 71.8172 0.6955C72.2302 1.10884 72.4161 1.58418 72.4161 2.14218V7.57757C72.4161 7.9289 72.2922 8.2389 72.0444 8.48691C71.7965 8.73491 71.4867 8.87958 71.1356 8.87958C70.7845 8.87958 70.4747 8.75558 70.2268 8.48691C69.9376 8.21824 69.8137 7.9289 69.8137 7.57757Z" fill="#3A4349"/>
<path d="M1.53174 20.081V14.0876C1.53174 13.6536 1.65567 13.3023 1.88286 13.0749C2.11005 12.8476 2.46118 12.7236 2.89491 12.7236H7.04637C7.33553 12.7236 7.60403 12.8269 7.81057 13.0336C8.01711 13.2403 8.12038 13.4883 8.12038 13.7983C8.12038 14.0876 8.01711 14.3356 7.81057 14.563C7.60403 14.7696 7.35618 14.873 7.04637 14.873H4.11349V15.865H6.96376C7.25292 15.865 7.52141 15.9683 7.72795 16.175C7.93449 16.3816 8.03776 16.6296 8.03776 16.9396C8.03776 17.229 7.93449 17.477 7.72795 17.6836C7.52141 17.8903 7.27357 17.9936 6.96376 17.9936H4.11349V20.0603C4.11349 20.4117 3.98957 20.7217 3.74172 20.9697C3.49388 21.2177 3.18407 21.3623 2.83295 21.3623C2.48183 21.3623 2.17202 21.2383 1.92417 20.9697C1.67632 20.7423 1.53174 20.4323 1.53174 20.081Z" fill="#3A4349"/>
<path d="M15.4113 18.097L16.3407 19.275C16.5266 19.4817 16.6299 19.7503 16.6299 20.081C16.6299 20.453 16.506 20.763 16.2375 21.011C15.969 21.259 15.6798 21.383 15.3287 21.383C14.895 21.383 14.5438 21.2177 14.296 20.8663L12.6437 18.531H11.6729V20.1017C11.6729 20.453 11.549 20.763 11.3012 21.011C11.0533 21.259 10.7435 21.4037 10.3924 21.4037C10.0413 21.4037 9.73144 21.2797 9.48359 21.011C9.23574 20.763 9.11182 20.453 9.11182 20.1017V14.1083C9.11182 13.6743 9.23574 13.3229 9.46294 13.0956C9.69013 12.8683 10.0413 12.7443 10.475 12.7443H13.6557C14.6058 12.7443 15.3493 13.0129 15.907 13.5709C16.4647 14.1289 16.7332 14.8316 16.7332 15.6583C16.7125 16.7536 16.2788 17.5596 15.4113 18.097ZM11.6936 14.8729V16.361H13.2633C13.5111 16.361 13.697 16.299 13.8623 16.1543C14.0275 16.0096 14.1101 15.8236 14.1101 15.617C14.1101 15.3896 14.0275 15.2243 13.8623 15.0796C13.697 14.9349 13.4905 14.8729 13.2633 14.8729H11.6936Z" fill="#3A4349"/>
<path d="M25.7383 20.081C25.7383 20.4323 25.6144 20.7423 25.3666 20.9903C25.1187 21.2383 24.8089 21.3623 24.4578 21.3623C24.1686 21.3623 23.9208 21.2797 23.6936 21.0937C23.4664 20.9283 23.3011 20.701 23.2185 20.4323L23.074 19.9776H19.9139L19.7693 20.4323C19.6867 20.701 19.5421 20.9077 19.2943 21.0937C19.0671 21.259 18.7986 21.3623 18.5301 21.3623C18.1789 21.3623 17.8691 21.2383 17.6213 20.9903C17.3734 20.7423 17.2495 20.4323 17.2495 20.081C17.2495 19.9156 17.2702 19.771 17.3321 19.6263L19.3975 14.0463C19.5628 13.6123 19.8313 13.2609 20.2237 12.9923C20.6161 12.7236 21.0499 12.5789 21.5249 12.5789C21.9999 12.5789 22.4337 12.7236 22.8261 12.9923C23.2185 13.2609 23.487 13.6123 23.6523 14.0463L25.7177 19.6263C25.7177 19.771 25.7383 19.9156 25.7383 20.081ZM20.5748 17.849H22.3924L21.4836 14.9969L20.5748 17.849Z" fill="#3A4349"/>
<path d="M31.9347 20.701L29.1671 16.671V20.081C29.1671 20.4323 29.0431 20.7423 28.7953 20.9903C28.5474 21.2383 28.2376 21.383 27.8865 21.383C27.5354 21.383 27.2256 21.259 26.9777 20.9903C26.7299 20.7423 26.606 20.4323 26.606 20.081V14.2736C26.606 13.8189 26.7712 13.4263 27.1017 13.0956C27.4321 12.7649 27.8245 12.5996 28.2996 12.5996C28.8986 12.5996 29.353 12.8476 29.6834 13.3229L32.2445 17.0223V13.8809C32.2445 13.5296 32.3684 13.2196 32.6163 12.9716C32.8641 12.7236 33.1739 12.5789 33.5251 12.5789C33.8762 12.5789 34.186 12.7029 34.4338 12.9716C34.6817 13.2196 34.8056 13.5296 34.8056 13.8809V19.8123C34.8056 20.2463 34.661 20.5977 34.3512 20.9077C34.0414 21.2177 33.6696 21.3623 33.2359 21.3623C32.6782 21.383 32.2445 21.1557 31.9347 20.701Z" fill="#3A4349"/>
<path d="M35.7141 16.981C35.6934 15.7203 36.1478 14.6456 37.036 13.8189C37.9447 12.9716 39.0394 12.5583 40.3406 12.5789C41.6625 12.5789 42.7158 12.9923 43.48 13.8396C43.7072 14.0876 43.8105 14.3563 43.8105 14.6663C43.8105 14.9969 43.6866 15.2863 43.4594 15.5136C43.2115 15.7616 42.9224 15.865 42.5919 15.865C42.2201 15.865 41.9103 15.7203 41.6831 15.4516C41.3114 15.0383 40.8776 14.8316 40.3406 14.8316C39.7623 14.8316 39.2873 15.0383 38.8948 15.4516C38.523 15.865 38.3165 16.361 38.3165 16.9603C38.3165 17.5596 38.5024 18.0556 38.8948 18.469C39.2666 18.8823 39.7623 19.089 40.3406 19.089C40.8776 19.089 41.3114 18.8823 41.6831 18.469C41.9103 18.2003 42.2201 18.0556 42.5919 18.0556C42.9224 18.0556 43.2115 18.1796 43.4387 18.407C43.6866 18.655 43.7899 18.9236 43.7899 19.2543C43.7899 19.5437 43.6866 19.8123 43.48 20.0603C42.6745 20.9283 41.6212 21.3417 40.3406 21.3417C39.0394 21.3623 37.9447 20.949 37.036 20.1017C36.1272 19.3163 35.6934 18.2623 35.7141 16.981Z" fill="#3A4349"/>
<path d="M44.9465 19.8743V14.0876C44.9465 13.6536 45.0705 13.3023 45.2977 13.0749C45.5248 12.8476 45.876 12.7236 46.3097 12.7236H50.4611C50.7502 12.7236 51.0188 12.8269 51.2253 13.0336C51.4318 13.2403 51.5351 13.4883 51.5351 13.7983C51.5351 14.0876 51.4318 14.3356 51.2253 14.5629C51.0188 14.7696 50.7709 14.873 50.4611 14.873H47.5283V15.865H50.3785C50.6676 15.865 50.9361 15.9683 51.1427 16.175C51.3492 16.3816 51.4525 16.6296 51.4525 16.9396C51.4525 17.229 51.3492 17.477 51.1427 17.6836C50.9361 17.8903 50.6883 17.9936 50.3785 17.9936H47.5283V19.089H50.4611C50.7502 19.089 51.0188 19.1923 51.2253 19.399C51.4318 19.6057 51.5351 19.8537 51.5351 20.1637C51.5351 20.453 51.4318 20.701 51.2253 20.9077C51.0188 21.1143 50.7709 21.2177 50.4611 21.2177H46.3097C45.876 21.2177 45.5248 21.0937 45.2977 20.8663C45.0705 20.6597 44.9465 20.329 44.9465 19.8743Z" fill="#3A4349"/>
<path d="M62.1308 18.097L63.0603 19.275C63.2462 19.4817 63.3494 19.7503 63.3494 20.081C63.3494 20.453 63.2255 20.763 62.957 21.011C62.6885 21.259 62.3993 21.383 62.0482 21.383C61.6145 21.383 61.2633 21.2177 61.0155 20.8663L59.3632 18.531H58.3924V20.1017C58.3924 20.453 58.2685 20.763 58.0206 21.011C57.7728 21.259 57.463 21.4037 57.1119 21.4037C56.7607 21.4037 56.4509 21.2797 56.2031 21.011C55.9552 20.763 55.8313 20.453 55.8313 20.1017V14.1083C55.8313 13.6743 55.9552 13.3229 56.1824 13.0956C56.4096 12.8683 56.7607 12.7443 57.1945 12.7443H60.3752C61.3253 12.7443 62.0689 13.0129 62.6265 13.5709C63.1842 14.1289 63.4527 14.8316 63.4527 15.6583C63.432 16.7536 62.9983 17.5596 62.1308 18.097ZM58.4131 14.8729V16.361H59.9828C60.2306 16.361 60.4165 16.299 60.5818 16.1543C60.747 16.0096 60.8296 15.8236 60.8296 15.617C60.8296 15.3896 60.747 15.2243 60.5818 15.0796C60.4165 14.9349 60.21 14.8729 59.9828 14.8729H58.4131Z" fill="#3A4349"/>
<path d="M64.4851 17.7456V13.9016C64.4851 13.5503 64.609 13.2403 64.8775 12.9716C65.146 12.7029 65.4352 12.5789 65.807 12.5789C66.1581 12.5789 66.4679 12.7029 66.7364 12.9716C67.0049 13.2403 67.1288 13.5296 67.1288 13.9016V17.663C67.1288 18.1176 67.2528 18.4896 67.5006 18.7376C67.7485 19.0063 68.1202 19.1303 68.6159 19.1303C69.091 19.1303 69.4628 19.0063 69.7106 18.7376C69.9585 18.469 70.0824 18.1176 70.0824 17.663V13.9016C70.0824 13.5503 70.2063 13.2403 70.4748 12.9716C70.7433 12.7029 71.0325 12.5789 71.4043 12.5789C71.776 12.5789 72.0858 12.7029 72.3337 12.9716C72.5815 13.2403 72.7261 13.5296 72.7261 13.9016V17.7456C72.7261 18.8616 72.3957 19.7503 71.7141 20.4117C71.0325 21.073 69.9998 21.4037 68.6366 21.4037C67.2941 21.4037 66.2614 21.073 65.5798 20.4323C64.8362 19.7916 64.4851 18.903 64.4851 17.7456Z" fill="#3A4349"/>
<path d="M73.7383 19.6883C73.7383 19.3576 73.8623 19.089 74.0895 18.8616C74.3166 18.6343 74.5852 18.531 74.9156 18.531C75.1428 18.531 75.3287 18.5723 75.4939 18.6756C76.1136 19.0476 76.7745 19.2336 77.4974 19.2336C77.7659 19.2336 77.9931 19.1923 78.179 19.1096C78.3649 19.027 78.4475 18.903 78.4475 18.7376C78.4475 18.5723 78.3649 18.4483 78.179 18.345C77.9931 18.2416 77.6833 18.159 77.2495 18.0763C76.5679 17.9523 75.9896 17.8283 75.4939 17.663C75.0395 17.5183 74.6265 17.2496 74.2547 16.8776C73.8829 16.5056 73.697 16.0096 73.697 15.3483C73.697 14.5629 74.0275 13.9016 74.6678 13.3849C75.308 12.8476 76.2168 12.5996 77.3734 12.5996C78.3855 12.5996 79.2736 12.7649 80.0378 13.1162C80.4922 13.3229 80.7194 13.6743 80.7194 14.1703C80.7194 14.4803 80.6161 14.7489 80.389 14.9763C80.1618 15.2036 79.8933 15.3069 79.5834 15.3069C79.4182 15.3069 79.253 15.2656 79.0671 15.2036C78.2822 14.9143 77.6833 14.7489 77.2495 14.7489C76.6506 14.7489 76.3407 14.8936 76.3407 15.2036C76.3407 15.3689 76.4234 15.4929 76.6092 15.5756C76.7745 15.6583 77.105 15.7409 77.6007 15.8029C78.3029 15.9269 78.8605 16.0716 79.2943 16.2163C79.79 16.3609 80.2031 16.6296 80.5542 16.981C80.9053 17.3323 81.0912 17.8283 81.0912 18.4276C81.0912 19.3576 80.7607 20.1016 80.1204 20.6183C79.4595 21.135 78.5714 21.4037 77.4148 21.4037C76.2375 21.4037 75.2461 21.1763 74.3993 20.7216C73.9449 20.4943 73.7383 20.143 73.7383 19.6883Z" fill="#3A4349"/>
<path d="M81.3184 19.6883C81.3184 19.3576 81.4423 19.089 81.6695 18.8616C81.8967 18.6343 82.1652 18.531 82.4957 18.531C82.7229 18.531 82.9088 18.5723 83.074 18.6756C83.6936 19.0476 84.3545 19.2336 85.0774 19.2336C85.3459 19.2336 85.5731 19.1923 85.759 19.1096C85.9449 19.027 86.0275 18.903 86.0275 18.7376C86.0275 18.5723 85.9449 18.4483 85.759 18.345C85.5731 18.2416 85.2633 18.159 84.8296 18.0763C84.148 17.9523 83.5697 17.8283 83.074 17.663C82.6196 17.5183 82.2065 17.2496 81.8348 16.8776C81.463 16.5056 81.2771 16.0096 81.2771 15.3483C81.2771 14.5629 81.6076 13.9016 82.2478 13.3849C82.8881 12.8476 83.7969 12.5996 84.9535 12.5996C85.9656 12.5996 86.8537 12.7649 87.6179 13.1162C88.0723 13.3229 88.2995 13.6743 88.2995 14.1703C88.2995 14.4803 88.1962 14.7489 87.969 14.9763C87.7418 15.2036 87.4733 15.3069 87.1635 15.3069C86.9983 15.3069 86.833 15.2656 86.6471 15.2036C85.8623 14.9143 85.2633 14.7489 84.8296 14.7489C84.2306 14.7489 83.9208 14.8936 83.9208 15.2036C83.9208 15.3689 84.0034 15.4929 84.1893 15.5756C84.3545 15.6583 84.685 15.7409 85.1807 15.8029C85.8829 15.9269 86.4406 16.0716 86.8743 16.2163C87.37 16.3609 87.7831 16.6296 88.1342 16.981C88.4854 17.3323 88.6712 17.8283 88.6712 18.4276C88.6712 19.3576 88.3408 20.1016 87.7005 20.6183C87.0396 21.135 86.1514 21.4037 84.9948 21.4037C83.8175 21.4037 82.8261 21.1763 81.9793 20.7216C81.5249 20.4943 81.3184 20.143 81.3184 19.6883Z" fill="#3A4349"/>
<path d="M89.4766 20.081V13.8809C89.4766 13.5296 89.6005 13.2196 89.8483 12.9716C90.0962 12.7236 90.406 12.5789 90.7571 12.5789C91.1082 12.5789 91.418 12.7029 91.6659 12.9716C91.9137 13.2196 92.0377 13.5296 92.0377 13.8809V20.081C92.0377 20.4323 91.9137 20.7423 91.6659 20.9903C91.418 21.2383 91.1082 21.383 90.7571 21.383C90.406 21.383 90.0962 21.259 89.8483 20.9903C89.6005 20.7423 89.4766 20.4323 89.4766 20.081Z" fill="#3A4349"/>
<path d="M93.4216 19.8743V14.0876C93.4216 13.6536 93.5455 13.3023 93.7727 13.0749C93.9999 12.8476 94.3511 12.7236 94.7848 12.7236H98.9363C99.2255 12.7236 99.494 12.8269 99.7005 13.0336C99.9071 13.2403 100.01 13.4883 100.01 13.7983C100.01 14.0876 99.9071 14.3356 99.7005 14.5629C99.494 14.7696 99.2461 14.873 98.9363 14.873H96.0034V15.865H98.8537C99.1429 15.865 99.4114 15.9683 99.6179 16.175C99.8245 16.3816 99.9277 16.6296 99.9277 16.9396C99.9277 17.229 99.8245 17.477 99.6179 17.6836C99.4114 17.8903 99.1635 17.9936 98.8537 17.9936H96.0034V19.089H98.9363C99.2255 19.089 99.494 19.1923 99.7005 19.399C99.9071 19.6057 100.01 19.8537 100.01 20.1637C100.01 20.453 99.9071 20.701 99.7005 20.9077C99.494 21.1143 99.2461 21.2177 98.9363 21.2177H94.7848C94.3511 21.2177 93.9999 21.0937 93.7727 20.8663C93.5455 20.6597 93.4216 20.329 93.4216 19.8743Z" fill="#3A4349"/>
<path d="M1.22196 32.1918C1.22196 31.8611 1.34589 31.5924 1.57308 31.3651C1.80028 31.1378 2.06878 31.0344 2.39924 31.0344C2.62644 31.0344 2.81232 31.0758 2.97755 31.1791C3.59717 31.5511 4.2581 31.7371 4.98099 31.7371C5.2495 31.7371 5.47669 31.6958 5.66257 31.6131C5.84846 31.5304 5.93109 31.4064 5.93109 31.2411C5.93109 31.0758 5.84846 30.9518 5.66257 30.8484C5.47669 30.7451 5.16688 30.6624 4.73314 30.5797C4.05156 30.4557 3.47325 30.3317 2.97755 30.1664C2.52316 30.0217 2.11008 29.7531 1.73831 29.3811C1.36654 29.0091 1.18066 28.5131 1.18066 27.8517C1.18066 27.0664 1.51112 26.405 2.15139 25.8884C2.79167 25.351 3.70045 25.103 4.85708 25.103C5.86912 25.103 6.75724 25.2684 7.52144 25.6197C7.97582 25.8264 8.20303 26.1777 8.20303 26.6737C8.20303 26.9837 8.09975 27.2524 7.87256 27.4797C7.64536 27.7071 7.37687 27.8104 7.06706 27.8104C6.90183 27.8104 6.73659 27.7691 6.55071 27.7071C5.76586 27.4177 5.16688 27.2524 4.73314 27.2524C4.13418 27.2524 3.82438 27.3971 3.82438 27.7071C3.82438 27.8724 3.90699 27.9964 4.09288 28.0791C4.25811 28.1617 4.58857 28.2444 5.08426 28.3064C5.7865 28.4304 6.34416 28.5751 6.7779 28.7197C7.27359 28.8644 7.68667 29.1331 8.03779 29.4844C8.3889 29.8357 8.5748 30.3317 8.5748 30.9311C8.5748 31.8611 8.24433 32.6051 7.60406 33.1218C6.94313 33.6384 6.05501 33.9071 4.89839 33.9071C3.72111 33.9071 2.72971 33.6798 1.88289 33.2251C1.4285 32.9978 1.22196 32.6464 1.22196 32.1918Z" fill="#3A4349"/>
<path d="M9.38013 30.2491V26.4051C9.38013 26.0537 9.50406 25.7437 9.77256 25.4751C10.0411 25.2064 10.3302 25.0824 10.702 25.0824C11.0531 25.0824 11.3629 25.2064 11.6314 25.4751C11.8999 25.7437 12.0239 26.0331 12.0239 26.4051V30.1664C12.0239 30.6211 12.1478 30.9931 12.3956 31.2411C12.6435 31.5098 13.0153 31.6338 13.511 31.6338C13.986 31.6338 14.3578 31.5098 14.6056 31.2411C14.8535 30.9724 14.9774 30.6211 14.9774 30.1664V26.4051C14.9774 26.0537 15.1013 25.7437 15.3698 25.4751C15.6383 25.2064 15.9275 25.0824 16.2993 25.0824C16.6711 25.0824 16.9809 25.2064 17.2287 25.4751C17.4766 25.7437 17.6212 26.0331 17.6212 26.4051V30.2491C17.6212 31.3651 17.2907 32.2538 16.6091 32.9151C15.9275 33.5765 14.8948 33.9071 13.5316 33.9071C12.1891 33.9071 11.1564 33.5765 10.4748 32.9358C9.73126 32.2951 9.38013 31.4065 9.38013 30.2491Z" fill="#3A4349"/>
<path d="M25.2633 30.6004L26.1927 31.7784C26.3786 31.9851 26.4819 32.2538 26.4819 32.5845C26.4819 32.9565 26.358 33.2665 26.0895 33.5145C25.821 33.7625 25.5318 33.8865 25.1807 33.8865C24.747 33.8865 24.3958 33.7211 24.148 33.3698L22.4957 31.0344H21.525V32.6051C21.525 32.9565 21.401 33.2665 21.1532 33.5145C20.9053 33.7625 20.5955 33.9071 20.2444 33.9071C19.8933 33.9071 19.5835 33.7831 19.3356 33.5145C19.0878 33.2665 18.9639 32.9565 18.9639 32.6051V26.6117C18.9639 26.1777 19.0878 25.8264 19.315 25.599C19.5422 25.3717 19.8933 25.2477 20.327 25.2477H23.5077C24.4578 25.2477 25.2013 25.5164 25.759 26.0744C26.3167 26.6324 26.5852 27.3351 26.5852 28.1617C26.5645 29.2571 26.1308 30.0631 25.2633 30.6004ZM21.525 27.3764V28.8644H23.0946C23.3425 28.8644 23.5284 28.8024 23.6936 28.6577C23.8588 28.5131 23.9415 28.3271 23.9415 28.1204C23.9415 27.8931 23.8588 27.7277 23.6936 27.5831C23.5284 27.4384 23.3218 27.3764 23.0946 27.3764H21.525Z" fill="#3A4349"/>
<path d="M30.8604 32.3778V26.3844C30.8604 26.0331 30.9843 25.7231 31.2321 25.4751C31.48 25.2271 31.7898 25.0824 32.1409 25.0824C32.492 25.0824 32.8018 25.2064 33.0497 25.4751C33.2975 25.7231 33.4214 26.0331 33.4214 26.3844V31.4891H35.652C35.9618 31.4891 36.2303 31.5924 36.4369 31.8198C36.6641 32.0471 36.7673 32.2951 36.7673 32.6258C36.7673 32.9358 36.6641 33.2044 36.4369 33.4318C36.2097 33.6591 35.9412 33.7625 35.652 33.7625H32.2028C31.7691 33.7625 31.418 33.6385 31.1908 33.4111C30.9843 33.1631 30.8604 32.8324 30.8604 32.3778Z" fill="#3A4349"/>
<path d="M36.1687 29.1331C35.7556 27.3764 35.5491 26.4257 35.5491 26.281C35.5491 25.9504 35.673 25.6817 35.9002 25.4544C36.1274 25.227 36.4165 25.103 36.7263 25.103C37.0568 25.103 37.3253 25.227 37.5525 25.4544C37.7797 25.6817 37.9036 25.971 37.9036 26.281C37.9036 26.4257 37.6971 27.3764 37.284 29.1331C37.222 29.4017 37.0362 29.5464 36.7263 29.5464C36.4165 29.5257 36.2307 29.4017 36.1687 29.1331Z" fill="#3A4349"/>
<path d="M44.6574 32.5844V30.4971H41.6006V32.5844C41.6006 32.9358 41.4767 33.2458 41.2289 33.4938C40.981 33.7418 40.6712 33.8864 40.3201 33.8864C39.969 33.8864 39.6592 33.7624 39.4113 33.4938C39.1635 33.2458 39.0396 32.9358 39.0396 32.5844V26.3844C39.0396 26.0331 39.1635 25.7231 39.4113 25.4751C39.6592 25.2271 39.969 25.0824 40.3201 25.0824C40.6712 25.0824 40.981 25.2064 41.2289 25.4751C41.4767 25.7231 41.6006 26.0331 41.6006 26.3844V28.2444H44.6574V26.3844C44.6574 26.0331 44.7814 25.7231 45.0292 25.4751C45.2771 25.2271 45.5869 25.0824 45.938 25.0824C46.2891 25.0824 46.5989 25.2064 46.8468 25.4751C47.0946 25.7437 47.2185 26.0331 47.2185 26.3844V32.5844C47.2185 32.9358 47.0946 33.2458 46.8468 33.4938C46.5989 33.7418 46.2891 33.8864 45.938 33.8864C45.5869 33.8864 45.2771 33.7624 45.0292 33.4938C44.7814 33.2458 44.6574 32.9358 44.6574 32.5844Z" fill="#3A4349"/>
<path d="M55.8518 27.211L53.4353 30.3524V32.5844C53.4353 32.9358 53.3114 33.2458 53.0635 33.4938C52.8157 33.7418 52.5059 33.8864 52.1547 33.8864C51.8036 33.8864 51.4938 33.7624 51.246 33.4938C50.9981 33.2251 50.8742 32.9358 50.8742 32.5844V30.3524L48.4577 27.211C48.2305 26.9217 48.1272 26.6324 48.1272 26.3637C48.1272 26.0124 48.2511 25.723 48.499 25.475C48.7468 25.227 49.036 25.103 49.3871 25.103C49.8208 25.103 50.1513 25.2684 50.3991 25.6197L52.1754 28.1617L53.9516 25.6197C54.1995 25.289 54.5299 25.103 54.9637 25.103C55.2941 25.103 55.604 25.227 55.8518 25.475C56.0997 25.723 56.2236 26.0124 56.2236 26.3637C56.2029 26.653 56.079 26.9217 55.8518 27.211Z" fill="#3A4349"/>
<path d="M57.0706 32.3778V26.5911C57.0706 26.1571 57.1945 25.8057 57.4217 25.5784C57.6489 25.3511 58 25.2271 58.4337 25.2271H60.8709C62.2547 25.2271 63.3701 25.5991 64.2375 26.3637C65.105 27.1284 65.5387 28.1617 65.5387 29.4844C65.5387 30.8071 65.105 31.8404 64.2375 32.6051C63.3701 33.3698 62.2547 33.7418 60.8709 33.7418H58.4131C57.9793 33.7418 57.6282 33.6178 57.401 33.3905C57.1945 33.1631 57.0706 32.8325 57.0706 32.3778ZM59.6523 31.5098H60.8709C61.4905 31.5098 61.9862 31.3238 62.358 30.9311C62.7298 30.5384 62.9363 30.0631 62.9363 29.4844C62.9363 28.8644 62.7504 28.3684 62.3993 28.0171C62.0482 27.6657 61.5318 27.4797 60.8916 27.4797H59.6523V31.5098Z" fill="#3A4349"/>
<path d="M72.7883 30.6004L73.7177 31.7784C73.9036 31.9851 74.0069 32.2538 74.0069 32.5845C74.0069 32.9565 73.883 33.2665 73.6144 33.5145C73.3459 33.7625 73.0568 33.8865 72.7057 33.8865C72.2719 33.8865 71.9208 33.7211 71.673 33.3698L70.0206 31.0344H69.0499V32.6051C69.0499 32.9565 68.926 33.2665 68.6781 33.5145C68.4303 33.7625 68.1204 33.9071 67.7693 33.9071C67.4182 33.9071 67.1084 33.7831 66.8606 33.5145C66.6127 33.2665 66.4888 32.9565 66.4888 32.6051V26.6117C66.4888 26.1777 66.6127 25.8264 66.8399 25.599C67.0671 25.3717 67.4182 25.2477 67.852 25.2477H71.0327C71.9828 25.2477 72.7263 25.5164 73.284 26.0744C73.8416 26.6324 74.1102 27.3351 74.1102 28.1617C74.0895 29.2571 73.6558 30.0631 72.7883 30.6004ZM69.0705 27.3764V28.8644H70.6403C70.8881 28.8644 71.074 28.8024 71.2392 28.6577C71.4045 28.5131 71.4871 28.3271 71.4871 28.1204C71.4871 27.8931 71.4045 27.7277 71.2392 27.5831C71.074 27.4384 70.8675 27.3764 70.6403 27.3764H69.0705Z" fill="#3A4349"/>
<path d="M79.356 25.0824C80.6779 25.0617 81.7726 25.4751 82.6813 26.3224C83.5901 27.1697 84.0445 28.2238 84.0032 29.4844C84.0239 30.7451 83.5901 31.8198 82.6813 32.6671C81.7726 33.5145 80.6573 33.9278 79.356 33.9071C78.0342 33.9278 76.9395 33.5145 76.0307 32.6671C75.122 31.8198 74.6676 30.7658 74.7089 29.4844C74.6882 28.2238 75.122 27.1697 76.0307 26.3224C76.9189 25.4751 78.0342 25.0617 79.356 25.0824ZM80.8225 27.9758C80.4301 27.5624 79.955 27.3558 79.356 27.3558C78.7571 27.3558 78.2614 27.5624 77.8896 27.9758C77.4972 28.3891 77.3113 28.8851 77.3113 29.5051C77.3113 30.1044 77.4972 30.6211 77.8896 31.0344C78.282 31.4478 78.7571 31.6544 79.356 31.6544C79.955 31.6544 80.4507 31.4478 80.8225 31.0344C81.2149 30.6211 81.4008 30.1251 81.4008 29.5051C81.4008 28.8851 81.1943 28.3891 80.8225 27.9758Z" fill="#3A4349"/>
<path d="M93.0497 29.8151V31.1998C93.0497 31.9231 92.8019 32.4811 92.3268 32.8531C91.4181 33.5558 90.3647 33.9071 89.1461 33.9071C88.2993 33.9071 87.5145 33.7418 86.7916 33.3698C86.0687 32.9978 85.4904 32.4811 85.0773 31.7991C84.6436 31.1171 84.4371 30.3524 84.4577 29.4844C84.4371 28.1824 84.8914 27.1077 85.8002 26.2811C86.709 25.4544 87.8243 25.041 89.1461 25.0617C90.1995 25.0617 91.0876 25.3717 91.8518 25.9711C92.141 26.2191 92.3062 26.5291 92.3062 26.9217C92.3062 27.2524 92.1823 27.5417 91.9551 27.7691C91.7279 27.9964 91.4387 28.1204 91.1083 28.1204C90.7778 28.1204 90.5093 28.0171 90.3028 27.8104C89.9517 27.5004 89.5799 27.3351 89.1461 27.3351C88.5472 27.3351 88.0515 27.5417 87.6591 27.9551C87.2666 28.3684 87.0808 28.8644 87.0808 29.4844C87.0808 30.0838 87.2666 30.6004 87.6591 31.0138C88.0515 31.4271 88.5472 31.6338 89.1461 31.6338C89.7245 31.6338 90.1788 31.5098 90.468 31.2411V30.9311H89.8071C89.5179 30.9311 89.2701 30.8278 89.0635 30.6211C88.857 30.4144 88.7537 30.1458 88.7537 29.8564C88.7537 29.5671 88.857 29.2984 89.0635 29.0504C89.2701 28.8024 89.5179 28.6991 89.8071 28.6991H91.9551C92.2442 28.6991 92.4921 28.8024 92.7193 29.0297C92.9465 29.2571 93.0497 29.5258 93.0497 29.8151Z" fill="#3A4349"/>
<path d="M94.2063 32.3778V26.591C94.2063 26.157 94.3302 25.8057 94.5574 25.5784C94.7846 25.351 95.1357 25.227 95.5695 25.227H99.7209C100.01 25.227 100.279 25.3304 100.485 25.537C100.692 25.7437 100.795 25.9917 100.795 26.3017C100.795 26.591 100.692 26.839 100.485 27.0664C100.279 27.273 100.031 27.3764 99.7209 27.3764H96.7881V28.3684H99.6383C99.9275 28.3684 100.196 28.4717 100.403 28.6784C100.609 28.8851 100.712 29.1331 100.712 29.4431C100.712 29.7324 100.609 29.9804 100.403 30.1871C100.196 30.3937 99.9481 30.4971 99.6383 30.4971H96.7881V31.5924H99.7209C100.01 31.5924 100.279 31.6958 100.485 31.9024C100.692 32.1091 100.795 32.3571 100.795 32.6671C100.795 32.9564 100.692 33.2044 100.485 33.4111C100.279 33.6178 100.031 33.7211 99.7209 33.7211H95.5695C95.1357 33.7211 94.7846 33.5971 94.5574 33.3698C94.3302 33.1631 94.2063 32.8324 94.2063 32.3778ZM97.0979 24.5657L96.0445 23.5737C95.8999 23.429 95.8379 23.2843 95.8379 23.0777C95.8379 22.8917 95.8999 22.7263 96.0445 22.5817C96.1891 22.4577 96.3337 22.375 96.5195 22.375C96.7261 22.375 96.8913 22.4577 97.0359 22.623L97.986 23.7803C98.0686 23.863 98.1099 23.987 98.1099 24.1317C98.1099 24.297 98.048 24.4417 97.924 24.545C97.8001 24.669 97.6762 24.7104 97.5109 24.7104C97.3664 24.731 97.2218 24.669 97.0979 24.5657Z" fill="#3A4349"/>
<path d="M107.156 33.2044L104.389 29.1744V32.5844C104.389 32.9358 104.265 33.2458 104.017 33.4938C103.769 33.7418 103.459 33.8864 103.108 33.8864C102.757 33.8864 102.447 33.7624 102.199 33.4938C101.952 33.2458 101.828 32.9358 101.828 32.5844V26.7771C101.828 26.3224 101.993 25.9297 102.323 25.5991C102.654 25.2684 103.046 25.1031 103.521 25.1031C104.12 25.1031 104.575 25.3511 104.905 25.8264L107.466 29.5258V26.3844C107.466 26.0331 107.59 25.7231 107.838 25.4751C108.086 25.2271 108.396 25.0824 108.747 25.0824C109.098 25.0824 109.408 25.2064 109.656 25.4751C109.903 25.7231 110.027 26.0331 110.027 26.3844V32.3158C110.027 32.7498 109.883 33.1011 109.573 33.4111C109.263 33.7211 108.891 33.8658 108.458 33.8658C107.921 33.8864 107.487 33.6591 107.156 33.2044Z" fill="#3A4349"/>
<path d="M111.411 32.3778V26.5911C111.411 26.1571 111.535 25.8057 111.762 25.5784C111.989 25.3511 112.341 25.2271 112.774 25.2271H116.926C117.215 25.2271 117.483 25.3304 117.69 25.5371C117.897 25.7437 118 25.9917 118 26.3017C118 26.5911 117.897 26.8391 117.69 27.0664C117.483 27.2731 117.236 27.3764 116.926 27.3764H113.993V28.3684H116.843C117.132 28.3684 117.401 28.4717 117.607 28.6784C117.814 28.8851 117.917 29.1331 117.917 29.4431C117.917 29.7324 117.814 29.9804 117.607 30.1871C117.401 30.3938 117.153 30.4971 116.843 30.4971H113.993V31.5924H116.926C117.215 31.5924 117.483 31.6958 117.69 31.9024C117.897 32.1091 118 32.3571 118 32.6671C118 32.9564 117.897 33.2045 117.69 33.4111C117.483 33.6178 117.236 33.7211 116.926 33.7211H112.774C112.341 33.7211 111.989 33.5971 111.762 33.3698C111.535 33.1631 111.411 32.8324 111.411 32.3778Z" fill="#3A4349"/>
</svg>
