<svg width="19" height="18" viewBox="0 0 19 18" fill="none" xmlns="http://www.w3.org/2000/svg">
<path fill-rule="evenodd" clip-rule="evenodd" d="M2.84023 6.85617C4.62754 10.7481 7.80803 13.8422 11.7618 15.5188L11.7743 15.5241L12.5381 15.8646C13.5107 16.2979 14.6539 15.9901 15.2776 15.1271L16.5519 13.3633C16.6298 13.2556 16.6097 13.1058 16.5063 13.0223L14.2815 11.2275C14.1709 11.1383 14.0083 11.1591 13.9237 11.2732L13.0578 12.4416C12.8475 12.7254 12.4678 12.824 12.146 12.6784C9.18962 11.3404 6.81391 8.96473 5.47598 6.00832C5.33037 5.68656 5.42896 5.30681 5.71272 5.09653L6.88109 4.23067C6.99526 4.14606 7.01604 3.98343 6.92682 3.87284L5.13178 1.6478C5.04835 1.54438 4.8986 1.52429 4.79087 1.60207L3.01758 2.88222C2.14879 3.50941 1.84283 4.66226 2.28629 5.63771L2.83963 6.85487C2.83983 6.8553 2.84003 6.85574 2.84023 6.85617ZM11.1699 16.8971C6.87386 15.0735 3.4185 11.7105 1.47645 7.48076L1.47528 7.47821L0.92078 6.2585C0.18168 4.63275 0.691608 2.71134 2.13959 1.66603L3.91288 0.385867C4.667 -0.158539 5.71523 -0.0179346 6.29923 0.705959L8.09427 2.931C8.71883 3.70517 8.57336 4.84357 7.7742 5.43581L7.1047 5.93196C8.23561 8.12636 10.028 9.91874 12.2224 11.0497L12.7185 10.3801C13.3108 9.58098 14.4492 9.43552 15.2234 10.0601L17.4481 11.8549C18.1722 12.439 18.3126 13.4877 17.7678 14.2418L16.4934 16.0055C15.454 17.444 13.5487 17.957 11.9276 17.2347L11.1699 16.8971Z" fill="#067CC8"/>
</svg>
